<svg id="Layer_1" data-name="Layer 1" xmlns="http://www.w3.org/2000/svg" viewBox="0 0 284.17 284.17"><defs><style>.cls-1{fill:#3a3d3d;}.cls-2{fill:#fff;}</style></defs><path class="cls-1" d="M602.12,346q-41.61-41.61-100.6-41.61-58.74,0-100.35,41.61t-41.61,100.6v79.95a45,45,0,0,1,70.49,2.94V446.56q0-29.61,21.05-50.67,20.81-21,50.42-21.05t50.67,21.05q21,21.06,21,50.67V553.27a35.14,35.14,0,0,0,60,25,33.62,33.62,0,0,0,10.52-25V446.56Q643.73,387.57,602.12,346ZM393.64,523.34a32.56,32.56,0,0,0-21.31,57.18l.83.68a33.42,33.42,0,0,0,18.8,7.22h.14c.51,0,1,0,1.54,0a32.56,32.56,0,0,0,0-65.12Z" transform="translate(-359.56 -304.35)"/><path class="cls-2" d="M426.2,555.9a32.56,32.56,0,0,1-32.56,32.56c-.52,0-1,0-1.54,0H392a32.32,32.32,0,0,1-18.8-7.22l-.83-.68A32.56,32.56,0,1,1,426.2,555.9Z" transform="translate(-359.56 -304.35)"/><path class="cls-2" d="M426.2,555.9a32.56,32.56,0,0,1-32.56,32.56c-.52,0-1,0-1.54,0H392a32.32,32.32,0,0,1-18.8-7.22l-.83-.68A32.56,32.56,0,1,1,426.2,555.9Z" transform="translate(-359.56 -304.35)"/></svg>